<svg version="1.2" xmlns="http://www.w3.org/2000/svg" viewBox="0 0 1000 508" width="1000" height="508">
	<title>logo</title>
	<style>
		.s0 { fill: #ec5f4b } 
		.s1 { fill: #f8f7f8 } 
		.s2 { fill: #3a3837 } 
	</style>
	<path fill-rule="evenodd" class="s0" d="m0 0h1000v507.6h-1000z"/>
	<g>
		<path class="s1" d="m23.5 100.9v45.8h62.7v158.4h57.8v-158.4h62.4v-45.8z"/>
		<path class="s1" d="m372.1 240.9c12.3-5.9 22-14.1 28.9-24.6 7.4-11.2 11.1-24.5 11.1-39.8 0-23.3-8-41.8-24.1-55.3-16-13.5-39-20.3-68.7-20.3h-91.3v45.5h89.9c12.1 0 21.1 2.6 27 7.9 5.9 5.2 8.9 12.7 8.9 22.2 0 9.5-3 16.6-8.9 21.9-5.9 5.2-14.9 7.9-27 7.9h-89.9v98.9h57.8v-54.3h31.5l37 54.3h61.9z"/>
		<path fill-rule="evenodd" class="s1" d="m656.9 305.2h-60.1l-15.9-39.7-17.1-42.6-26.2-65.3-26.2 65.3-17.1 42.6-15.9 39.7h-59l90.2-204.3h56.9l90.4 204.3z"/>
		<path class="s1" d="m673.3 100.9v204.3h57.8v-204.3z"/>
		<path class="s1" d="m909.9 100.9v24.3l56.6 68.3v-92.7h-56.6zm0 108.9l-16.5-19.9-73.7-89h-47.6v27.1l56.6 68.3 90.2 108.9h47.6v-27.1zm-137.7 95.4h56.6v-24.3c-20.8-25.1-43.6-52.7-56.6-68.3v92.7z"/>
	</g>
	<g>
		<path class="s2" d="m215 356.7c-1.6-4.3-3.9-8.2-6.9-11.8-3-3.5-6.5-6.3-10.7-8.4-4.1-2.1-8.7-3.1-13.8-3.1-5.1 0-9.4 1-13.5 3q-6.1 3-10.8 8.1-4.7 5.1-7.2 11.7c-1.7 4.4-2.6 8.9-2.6 13.7 0 4.8 0.8 9.1 2.4 13.4 1.6 4.3 3.9 8.3 7 11.8 3 3.5 6.6 6.2 10.7 8.3q6.1 3 13.8 3c5.1 0 9.4-1 13.5-2.9q6.1-3 10.8-8.1 4.6-5.1 7.2-11.7c1.7-4.4 2.5-8.9 2.5-13.8 0-4.9-0.8-9-2.4-13.3zm-8.5 23.4c-1.1 3.4-2.7 6.4-4.9 9.1-2.1 2.7-4.7 4.9-7.7 6.5-3.1 1.6-6.5 2.4-10.4 2.4-3.9 0-7.1-0.8-10.2-2.3q-4.5-2.2-7.8-6.3c-2.2-2.6-3.8-5.7-5-9.1-1.2-3.4-1.8-7-1.8-10.6 0-3.6 0.6-6.9 1.7-10.3 1.2-3.3 2.8-6.4 4.9-9.1 2.1-2.7 4.7-4.8 7.7-6.4 3.1-1.6 6.5-2.4 10.4-2.4 3.9 0 7 0.8 10 2.3q4.5 2.2 7.8 6.3c2.2 2.7 3.9 5.7 5.1 9.1q1.8 5.1 1.8 10.5c0 3.6-0.6 6.9-1.7 10.3z"/>
		<path class="s2" d="m278.3 348.5c-1.1-2.7-2.6-5.2-4.6-7.4-2-2.2-4.3-3.9-6.9-5.3-2.6-1.3-5.6-2-8.7-2h-30v28.9h9.1v-20.8h20.4c2.4 0 4.5 0.6 6.5 1.9 2 1.3 3.6 3.1 4.8 5.3 1.2 2.3 1.8 4.8 1.8 7.6 0 2.8-0.5 5.2-1.6 7.5-1 2.3-2.5 4.1-4.4 5.5-1.9 1.4-4 2-6.5 2h-30.1v34h9.1v-25.9h21.5c4.3 0 8-1.1 11.2-3.3 3.2-2.2 5.7-5.1 7.4-8.6 1.8-3.6 2.6-7.3 2.6-11.2 0-3.9-0.5-5.6-1.6-8.4z"/>
		<path class="s2" d="m300.4 397.8v-24.9h33.8v-7.6h-33.8v-23.3h38.9v-8.1h-48v72h48.9v-8.1z"/>
		<path class="s2" d="m390.2 378.3c3.1-0.8 5.7-2.3 8-4.4 2.3-2.1 4-4.6 5.3-7.6 1.2-3 1.9-6.1 1.9-9.4 0-3.3-0.5-5.6-1.6-8.4-1.1-2.7-2.6-5.2-4.6-7.4-2-2.2-4.3-3.9-6.9-5.3-2.6-1.3-5.5-2-8.7-2h-30.8v72h9.1v-25.9h8.7l-5.1-8.1h-3.5v-29.9h21.2c2.4 0 4.5 0.7 6.5 2q3 2.1 4.8 5.4c1.2 2.3 1.8 4.7 1.8 7.4 0 2.7-0.5 5.1-1.6 7.4-1 2.3-2.5 4.1-4.4 5.5-1.9 1.4-4 2.1-6.5 2.1h-7.9l5.1 8.1 16.4 25.9h10.4l-17.5-27.6z"/>
		<path class="s2" d="m453.3 344.6l-4.1 10.3 8.9 22.8h-18.1l-2.9 7.1h23l8.5 21.1h9.7z"/>
		<path fill-rule="evenodd" class="s2" d="m445.1 344.4l-13.3 33.3-11.2 28.2h-8.9l29.5-72h7.7l0.2 0.4-4 10.1z"/>
		<path class="s2" d="m499.1 351.1v54.8h9.1v-54.8zm-24.8-17.2v8.1h58.8v-8.1z"/>
		<path class="s2" d="m602.1 356.7c-1.6-4.3-3.9-8.2-6.9-11.8-3-3.5-6.5-6.3-10.7-8.4-4.1-2.1-8.7-3.1-13.8-3.1-5.1 0-9.4 1-13.5 3q-6.2 3-10.8 8.1-4.7 5.1-7.2 11.7c-1.7 4.4-2.6 8.9-2.6 13.7 0 4.8 0.8 9.1 2.4 13.4 1.6 4.3 3.9 8.3 7 11.8 3 3.5 6.6 6.2 10.7 8.3q6.2 3 13.8 3c5.1 0 9.4-1 13.5-2.9q6.2-3 10.8-8.1 4.6-5.1 7.2-11.7c1.7-4.4 2.5-8.9 2.5-13.8 0-4.9-0.8-9-2.4-13.3zm-8.5 23.4c-1.1 3.4-2.7 6.4-4.9 9.1-2.1 2.7-4.7 4.9-7.7 6.5-3.1 1.6-6.5 2.4-10.4 2.4-3.9 0-7.1-0.8-10.2-2.3q-4.5-2.2-7.8-6.3c-2.2-2.6-3.8-5.7-5-9.1-1.2-3.4-1.8-7-1.8-10.6 0-3.6 0.6-6.9 1.7-10.3 1.2-3.3 2.8-6.4 4.9-9.1 2.1-2.7 4.7-4.8 7.7-6.4 3.1-1.6 6.5-2.4 10.4-2.4 3.9 0 7 0.8 10 2.3q4.5 2.2 7.8 6.3c2.2 2.7 3.9 5.7 5.1 9.1q1.8 5.1 1.8 10.5c0 3.6-0.6 6.9-1.7 10.3z"/>
		<path class="s2" d="m744.2 333.9v72h9.1v-72z"/>
		<path class="s2" d="m822.4 334v56.2l-44-56.3h-7.7v5.1l17.9 22.8 34.7 44.1h8.3v-71.9h-9.1zm-51.8 71.9h9.1v-40.3l-9.1-11.6z"/>
		<path class="s2" d="m896.9 385.6c-1.4 3-3.2 5.4-5.5 7.3-2.3 1.9-4.8 3.2-7.4 4.1-2.6 0.9-5.2 1.3-7.7 1.3-3.6 0-6.9-0.8-9.9-2.3-3.1-1.6-5.7-3.7-7.9-6.3-2.2-2.6-4-5.7-5.2-9.1-1.3-3.4-1.9-7-1.9-10.8 0-3.8 0.5-6.7 1.6-10.1 1.1-3.3 2.6-6.4 4.7-9.1 2.1-2.7 4.7-4.9 7.8-6.5 3.1-1.6 6.6-2.4 10.6-2.4 4 0 4.9 0.4 7.5 1.1 2.5 0.8 4.9 2 7.1 3.8 2.2 1.8 4 4.2 5.4 7.3l7.2-4.7c-2.2-4.6-5.7-8.4-10.3-11.3-4.6-2.9-10.1-4.4-16.5-4.4-6.4 0-10.2 1-14.5 3.1-4.3 2.1-7.9 4.8-10.8 8.3-2.9 3.5-5.2 7.3-6.7 11.6-1.5 4.2-2.3 8.5-2.3 12.9 0 4.4 0.8 9 2.5 13.4 1.6 4.4 4 8.4 7 12 3 3.5 6.6 6.4 10.7 8.5 4.1 2.1 8.7 3.2 13.6 3.2 4.9 0 7.5-0.6 11.3-1.9 3.8-1.3 7.3-3.2 10.4-5.7 3.1-2.5 5.4-5.5 6.9-9.1l-7.6-4.2z"/>
		<path class="s2" d="m654.8 378.3c3.1-0.8 5.7-2.3 8-4.4 2.3-2.1 4-4.6 5.3-7.6 1.2-3 1.9-6.1 1.9-9.4 0-3.3-0.5-5.6-1.6-8.4-1.1-2.7-2.6-5.2-4.6-7.4-2-2.2-4.3-3.9-6.9-5.3-2.6-1.3-5.5-2-8.7-2h-30.8v72h9.1v-25.9h8.7l-5.1-8.1h-3.5v-29.9h21.2c2.4 0 4.5 0.7 6.5 2q3 2.1 4.8 5.4c1.2 2.3 1.8 4.7 1.8 7.4 0 2.7-0.5 5.1-1.6 7.4-1 2.3-2.5 4.1-4.4 5.5-1.9 1.4-4 2.1-6.5 2.1h-7.9l5.1 8.1 16.4 25.9h10.4l-17.5-27.6z"/>
	</g>
</svg>